<?xml version="1.0" encoding="UTF-8" standalone="no"?>
<!DOCTYPE svg PUBLIC "-//W3C//DTD SVG 1.1//EN" "http://www.w3.org/Graphics/SVG/1.1/DTD/svg11.dtd">
<svg width="100%" height="100%" viewBox="0 0 260 98" version="1.1" xmlns="http://www.w3.org/2000/svg" xmlns:xlink="http://www.w3.org/1999/xlink" xml:space="preserve" xmlns:serif="http://www.serif.com/" style="fill-rule:evenodd;clip-rule:evenodd;stroke-linejoin:round;stroke-miterlimit:1.41421;">
    <g id="Artboard1" transform="matrix(1.16407,0,0,1,0,-1.42109e-14)">
        <rect x="0" y="0" width="222.658" height="97.166" style="fill:none;"/>
        <g transform="matrix(0.913433,0,0,1.0633,-36.2158,-294.196)">
            <g transform="matrix(4.57217,0,0,4.57217,-732.536,-1015.93)">
                <path d="M196.11,295.853L194.73,295.853L194.742,294.785C194.134,295.569 193.326,295.973 192.318,295.997C191.574,296.021 191.072,295.779 190.812,295.271C190.552,294.763 190.506,293.933 190.674,292.781C190.754,292.237 190.866,291.779 191.01,291.407C191.154,291.035 191.314,290.741 191.49,290.525C191.666,290.309 191.894,290.145 192.174,290.033C192.454,289.921 192.724,289.849 192.984,289.817C193.244,289.785 193.574,289.769 193.974,289.769C194.398,289.769 194.906,289.805 195.498,289.877C196.09,289.949 196.562,290.033 196.914,290.129L196.11,295.853ZM195.018,291.077L194.106,291.077C193.53,291.077 193.138,291.177 192.93,291.377C192.722,291.577 192.566,292.053 192.462,292.805C192.358,293.565 192.334,294.051 192.39,294.263C192.446,294.475 192.618,294.573 192.906,294.557C193.434,294.549 194.026,294.177 194.682,293.441L195.018,291.077Z" style="fill-rule:nonzero;"/>
                <path d="M200.49,287.453L199.566,293.957C199.534,294.173 199.556,294.321 199.632,294.401C199.708,294.481 199.87,294.521 200.118,294.521L200.634,294.521L200.718,295.781C200.438,295.925 199.978,295.997 199.338,295.997C198.786,295.997 198.368,295.849 198.084,295.553C197.8,295.257 197.69,294.849 197.754,294.329L198.726,287.453L200.49,287.453Z" style="fill-rule:nonzero;"/>
                <path d="M203.67,289.937L203.646,291.077C203.998,290.717 204.394,290.413 204.834,290.165C205.274,289.917 205.706,289.793 206.13,289.793C206.826,289.793 207.306,290.037 207.57,290.525C207.834,291.013 207.886,291.841 207.726,293.009C207.654,293.521 207.556,293.959 207.432,294.323C207.308,294.687 207.166,294.977 207.006,295.193C206.846,295.409 206.652,295.579 206.424,295.703C206.196,295.827 205.968,295.909 205.74,295.949C205.512,295.989 205.242,296.009 204.93,296.009C204.346,296.009 203.758,295.957 203.166,295.853C203.166,296.229 203.138,296.601 203.082,296.969L202.89,298.133L201.114,298.133L202.266,289.937L203.67,289.937ZM203.382,294.773L204.294,294.773C204.902,294.773 205.3,294.671 205.488,294.467C205.676,294.263 205.822,293.769 205.926,292.985C206.022,292.233 206.04,291.751 205.98,291.539C205.92,291.327 205.754,291.221 205.482,291.221C205.274,291.221 205.01,291.309 204.69,291.485C204.37,291.661 204.05,291.897 203.73,292.193L203.382,294.773Z" style="fill-rule:nonzero;"/>
                <path d="M211.506,287.453L211.218,289.541C211.146,290.037 211.042,290.521 210.906,290.993C211.818,290.177 212.658,289.769 213.426,289.769C213.97,289.769 214.376,289.915 214.644,290.207C214.912,290.499 215.006,290.913 214.926,291.449L214.302,295.853L212.538,295.853L213.09,291.929C213.122,291.665 213.112,291.489 213.06,291.401C213.008,291.313 212.894,291.269 212.718,291.269C212.454,291.269 212.18,291.343 211.896,291.491C211.612,291.639 211.254,291.881 210.822,292.217L210.33,295.853L208.554,295.853L209.73,287.453L211.506,287.453Z" style="fill-rule:nonzero;"/>
                <path d="M221.358,295.853L219.978,295.853L219.99,294.785C219.382,295.569 218.574,295.973 217.566,295.997C216.822,296.021 216.32,295.779 216.06,295.271C215.8,294.763 215.754,293.933 215.922,292.781C216.002,292.237 216.114,291.779 216.258,291.407C216.402,291.035 216.562,290.741 216.738,290.525C216.914,290.309 217.142,290.145 217.422,290.033C217.702,289.921 217.972,289.849 218.232,289.817C218.492,289.785 218.822,289.769 219.222,289.769C219.646,289.769 220.154,289.805 220.746,289.877C221.338,289.949 221.81,290.033 222.162,290.129L221.358,295.853ZM220.266,291.077L219.354,291.077C218.778,291.077 218.386,291.177 218.178,291.377C217.97,291.577 217.814,292.053 217.71,292.805C217.606,293.565 217.582,294.051 217.638,294.263C217.694,294.475 217.866,294.573 218.154,294.557C218.682,294.549 219.274,294.177 219.93,293.441L220.266,291.077Z" style="fill-rule:nonzero;"/>
            </g>
            <g transform="matrix(0.833333,0,0,0.833333,8.60808,186.82)">
                <path d="M81.753,110.44C84.546,108.828 87.988,108.828 90.782,110.44C99.918,115.715 120.507,127.602 129.644,132.878C132.437,134.49 134.158,137.471 134.158,140.696C134.158,151.247 134.158,175.021 134.158,185.571C134.158,188.796 132.437,191.777 129.644,193.39C120.507,198.665 99.918,210.552 90.782,215.827C87.988,217.44 84.546,217.44 81.753,215.827C72.616,210.552 52.027,198.665 42.891,193.39C40.097,191.777 38.376,188.796 38.376,185.571C38.376,175.021 38.376,151.247 38.376,140.696C38.376,137.471 40.097,134.49 42.891,132.878C52.027,127.602 72.616,115.715 81.753,110.44Z" style="fill:url(#_Linear1);"/>
                <clipPath id="_clip2">
                    <path d="M81.753,110.44C84.546,108.828 87.988,108.828 90.782,110.44C99.918,115.715 120.507,127.602 129.644,132.878C132.437,134.49 134.158,137.471 134.158,140.696C134.158,151.247 134.158,175.021 134.158,185.571C134.158,188.796 132.437,191.777 129.644,193.39C120.507,198.665 99.918,210.552 90.782,215.827C87.988,217.44 84.546,217.44 81.753,215.827C72.616,210.552 52.027,198.665 42.891,193.39C40.097,191.777 38.376,188.796 38.376,185.571C38.376,175.021 38.376,151.247 38.376,140.696C38.376,137.471 40.097,134.49 42.891,132.878C52.027,127.602 72.616,115.715 81.753,110.44Z"/>
                </clipPath>
                <g clip-path="url(#_clip2)">
                    <g id="_123456789101112131415161718192021222324" serif:id="123456789101112131415161718192021222324" transform="matrix(0.952975,0,0,0.952975,30.3471,-84.3963)">
                        <path d="M82.221,278.987C80.832,279.474 79.375,279.876 77.861,280.168C76.346,280.474 75.152,280.626 74.277,280.626C71.999,280.626 70.277,279.96 69.111,278.64C67.944,277.335 67.139,274.974 66.666,271.585C65.972,272.752 65.111,273.96 64.083,275.181C63.069,276.418 62.014,277.419 60.888,278.181C59.624,279.071 58.332,279.765 57.027,280.238C55.722,280.71 54.152,280.946 52.305,280.946C50.055,280.946 47.888,280.446 45.819,279.446C43.749,278.432 41.902,277.002 40.305,275.126C38.707,273.252 37.443,271.002 36.527,268.376C35.596,265.737 35.138,262.834 35.138,259.668C35.138,256.766 35.624,254.001 36.597,251.404C37.583,248.793 38.943,246.501 40.708,244.53C42.389,242.654 44.388,241.195 46.708,240.126C49.028,239.07 51.444,238.543 53.93,238.543C57.167,238.543 59.902,239.321 62.152,240.891C64.402,242.446 66.069,244.626 67.124,247.418L68.138,239.64L75.708,239.64C75.514,241.571 75.097,244.446 74.458,248.265C73.833,252.098 73.083,256.279 72.249,260.807C72.333,264.792 72.777,268.127 73.611,270.792C74.444,273.459 75.5,275.181 76.805,275.946C77.208,276.182 77.986,276.321 79.124,276.348C80.263,276.377 81.291,276.39 82.221,276.39L82.221,278.987L82.221,278.987ZM65.902,258.488C65.708,256.501 65.402,254.502 64.958,252.459C64.527,250.432 63.874,248.627 63.013,247.057C62.166,245.446 61.083,244.154 59.735,243.168C58.388,242.167 56.735,241.682 54.749,241.682C51.555,241.682 48.902,243.321 46.791,246.599C44.694,249.891 43.638,254.404 43.638,260.154C43.638,262.349 43.874,264.432 44.333,266.405C44.791,268.363 45.444,270.071 46.291,271.501C47.18,273.03 48.36,274.252 49.805,275.181C51.263,276.126 52.985,276.585 54.999,276.585C58.305,276.585 60.874,275.113 62.721,272.14C64.569,269.168 65.624,264.613 65.902,258.488L65.902,258.488Z" style="fill:white;fill-rule:nonzero;"/>
                    </g>
                </g>
            </g>
        </g>
    </g>
    <defs>
        <linearGradient id="_Linear1" x1="0" y1="0" x2="1" y2="0" gradientUnits="userSpaceOnUse" gradientTransform="matrix(-64.0782,66.2256,-66.2256,-64.0782,119.965,133.835)"><stop offset="0" style="stop-color:rgb(94,209,255);stop-opacity:1"/><stop offset="1" style="stop-color:rgb(3,151,255);stop-opacity:1"/></linearGradient>
    </defs>
</svg>
