<svg aria-hidden="true" style="position: absolute; width: 0; height: 0; overflow: hidden;" version="1.1" xmlns="http://www.w3.org/2000/svg" xmlns:xlink="http://www.w3.org/1999/xlink">
<defs>
<symbol id="icon-spotify" viewBox="0 0 20 20">
<title>spotify</title>
<path d="M10 0.4c-5.302 0-9.6 4.298-9.6 9.6s4.298 9.6 9.6 9.6 9.6-4.298 9.6-9.6-4.298-9.6-9.6-9.6zM12.964 13.837c-0.148 0-0.25-0.056-0.359-0.122-1.013-0.613-2.268-0.935-3.628-0.935-0.694 0-1.443 0.082-2.226 0.242l-0.095 0.024c-0.1 0.024-0.201 0.050-0.279 0.050-0.315 0-0.562-0.245-0.562-0.559 0-0.318 0.18-0.543 0.479-0.6 0.934-0.213 1.814-0.316 2.687-0.316 1.58 0 2.994 0.365 4.201 1.090 0.208 0.121 0.338 0.26 0.338 0.569s-0.249 0.557-0.556 0.557zM13.742 11.654c-0.177 0-0.292-0.067-0.395-0.127-1.825-1.084-4.547-1.443-6.785-0.847-0.037 0.011-0.070 0.021-0.102 0.031-0.084 0.027-0.164 0.053-0.274 0.053-0.368 0-0.667-0.301-0.667-0.672 0-0.357 0.186-0.607 0.524-0.702 0.862-0.236 1.674-0.393 2.84-0.393 1.886 0 3.714 0.473 5.146 1.33 0.261 0.148 0.379 0.353 0.379 0.658 0 0.37-0.299 0.669-0.666 0.669zM14.625 9.166c-0.166 0-0.269-0.039-0.421-0.123-1.239-0.744-3.171-1.186-5.174-1.186-1.043 0-1.99 0.115-2.817 0.338-0.028 0.007-0.055 0.015-0.083 0.024-0.088 0.026-0.198 0.058-0.312 0.058-0.439 0-0.783-0.348-0.783-0.792 0-0.386 0.217-0.681 0.579-0.788 0.998-0.295 2.148-0.443 3.415-0.443 2.281 0 4.453 0.506 5.957 1.391 0.284 0.16 0.423 0.404 0.423 0.742 0 0.436-0.345 0.779-0.784 0.779z"></path>
</symbol>
<symbol id="icon-vk" viewBox="0 0 20 20">
<title>vk</title>
<path d="M10 0.4c-5.302 0-9.6 4.298-9.6 9.6s4.298 9.6 9.6 9.6 9.6-4.298 9.6-9.6-4.298-9.6-9.6-9.6zM13.692 11.231c0 0 0.849 0.838 1.058 1.227 0.006 0.008 0.009 0.016 0.011 0.020 0.085 0.143 0.105 0.254 0.063 0.337-0.070 0.138-0.31 0.206-0.392 0.212 0 0-1.458 0-1.5 0-0.104 0-0.322-0.027-0.586-0.209-0.203-0.142-0.403-0.375-0.598-0.602-0.291-0.338-0.543-0.63-0.797-0.63-0.032 0-0.065 0.005-0.095 0.015-0.192 0.062-0.438 0.336-0.438 1.066 0 0.228-0.18 0.359-0.307 0.359 0 0-0.655 0-0.687 0-0.234 0-1.453-0.082-2.533-1.221-1.322-1.395-2.512-4.193-2.522-4.219-0.075-0.181 0.080-0.278 0.249-0.278h1.515c0.202 0 0.268 0.123 0.314 0.232 0.054 0.127 0.252 0.632 0.577 1.2 0.527 0.926 0.85 1.302 1.109 1.302 0.049 0 0.094-0.013 0.139-0.036 0.338-0.188 0.275-1.393 0.26-1.643 0-0.047-0.001-0.539-0.174-0.775-0.124-0.171-0.335-0.236-0.463-0.26 0.033-0.049 0.107-0.124 0.199-0.169 0.232-0.116 0.65-0.133 1.065-0.133h0.231c0.45 0.006 0.566 0.035 0.729 0.076 0.33 0.079 0.337 0.292 0.308 1.021-0.009 0.207-0.018 0.441-0.018 0.717 0 0.060-0.003 0.124-0.003 0.192-0.010 0.371-0.022 0.792 0.24 0.965 0.034 0.021 0.073 0.033 0.114 0.033 0.091 0 0.365 0 1.107-1.273 0.325-0.562 0.577-1.225 0.595-1.274 0.015-0.026 0.059-0.106 0.111-0.137 0.041-0.024 0.096-0.029 0.124-0.029h1.781c0.194 0 0.327 0.029 0.352 0.104 0.044 0.119-0.008 0.482-0.821 1.583-0.137 0.182-0.258 0.341-0.363 0.479-0.737 0.966-0.737 1.015 0.046 1.748z"></path>
</symbol>
<symbol id="icon-dribbble" viewBox="0 0 20 20">
<title>dribbble</title>
<path d="M10.26 9.982c0.033-0.012 0.068-0.021 0.103-0.031-0.083-0.185-0.175-0.377-0.279-0.584-1.88 0.557-3.68 0.562-4.001 0.557-0.003 0.025-0.003 0.051-0.003 0.076 0 0.945 0.34 1.853 0.958 2.566 0.206-0.332 1.298-1.961 3.222-2.584zM7.623 13.113c0.689 0.528 1.512 0.807 2.377 0.807 0.517 0 1.019-0.1 1.494-0.295-0.066-0.381-0.295-1.541-0.822-2.922-2.121 0.75-2.922 2.162-3.049 2.41zM12.555 7.027c-0.711-0.611-1.617-0.947-2.555-0.947-0.284 0-0.569 0.031-0.85 0.094 0.205 0.275 0.832 1.146 1.421 2.223 1.283-0.493 1.863-1.204 1.984-1.37zM9.705 8.664c-0.608-1.072-1.241-1.955-1.415-2.191-1.067 0.517-1.852 1.506-2.113 2.658h0.017c0.406 0 1.849-0.033 3.511-0.467zM11.514 10.496c0.465 1.293 0.679 2.367 0.74 2.711 0.852-0.6 1.434-1.521 1.609-2.543-0.174-0.053-0.802-0.221-1.592-0.221-0.258 0-0.513 0.018-0.757 0.053zM10 0.4c-5.302 0-9.6 4.298-9.6 9.6s4.298 9.6 9.6 9.6 9.6-4.298 9.6-9.6-4.298-9.6-9.6-9.6zM10 14.697c-2.592 0-4.699-2.107-4.699-4.697 0-2.592 2.107-4.699 4.699-4.699 2.591 0 4.698 2.108 4.698 4.699s-2.107 4.697-4.698 4.697zM10.922 9.074c0.087 0.18 0.168 0.357 0.242 0.531 0.023 0.057 0.048 0.113 0.071 0.17 0.277-0.033 0.573-0.049 0.882-0.049 0.854 0 1.563 0.125 1.801 0.172-0.022-0.85-0.323-1.676-0.852-2.34-0.16 0.206-0.818 0.963-2.144 1.516z"></path>
</symbol>
<symbol id="icon-facebook" viewBox="0 0 20 20">
<title>facebook</title>
<path d="M10 0.4c-5.302 0-9.6 4.298-9.6 9.6s4.298 9.6 9.6 9.6 9.6-4.298 9.6-9.6-4.298-9.6-9.6-9.6zM12.274 7.034h-1.443c-0.171 0-0.361 0.225-0.361 0.524v1.042h1.805l-0.273 1.486h-1.532v4.461h-1.703v-4.461h-1.545v-1.486h1.545v-0.874c0-1.254 0.87-2.273 2.064-2.273h1.443v1.581z"></path>
</symbol>
<symbol id="icon-flickr" viewBox="0 0 20 20">
<title>flickr</title>
<path d="M10 0.4c-5.302 0-9.6 4.298-9.6 9.6s4.298 9.6 9.6 9.6 9.6-4.298 9.6-9.6-4.298-9.6-9.6-9.6zM7.436 12c-1.096 0-1.982-0.895-1.982-2s0.887-2 1.982-2c1.094 0 1.982 0.895 1.982 2s-0.889 2-1.982 2zM12.565 12c-1.095 0-1.983-0.895-1.983-2s0.888-2 1.983-2c1.096 0 1.982 0.895 1.982 2s-0.887 2-1.982 2z"></path>
</symbol>
<symbol id="icon-github" viewBox="0 0 20 20">
<title>github</title>
<path d="M10.015 9.949c0 0-0.010 0-0.015 0h-0.015c-1.191 0-2.24-0.303-2.861 0.268-0.371 0.342-0.527 0.754-0.527 1.197 0 1.852 1.483 2.080 3.389 2.080h0.029c1.905 0 3.389-0.229 3.389-2.080 0-0.443-0.156-0.856-0.527-1.197-0.622-0.571-1.671-0.268-2.862-0.268zM8.393 12.48c-0.363 0-0.656-0.408-0.656-0.91s0.293-0.908 0.656-0.908c0.363 0 0.657 0.406 0.657 0.908s-0.293 0.91-0.657 0.91zM11.606 12.48c-0.363 0-0.657-0.408-0.657-0.91s0.294-0.908 0.657-0.908c0.362 0 0.656 0.406 0.656 0.908s-0.293 0.91-0.656 0.91zM10 0.4c-5.302 0-9.6 4.298-9.6 9.6s4.298 9.6 9.6 9.6 9.6-4.298 9.6-9.6-4.298-9.6-9.6-9.6zM10.876 13.939c-0.172 0-0.514 0-0.876 0.002-0.362-0.002-0.704-0.002-0.876-0.002-0.76 0-3.772-0.059-3.772-3.689 0-0.834 0.286-1.445 0.755-1.955-0.074-0.184-0.078-1.232 0.32-2.236 0 0 0.916 0.1 2.301 1.051 0.289-0.081 0.781-0.122 1.272-0.122s0.982 0.041 1.273 0.121c1.385-0.951 2.301-1.051 2.301-1.051 0.398 1.004 0.395 2.053 0.32 2.236 0.469 0.51 0.755 1.121 0.755 1.955-0.001 3.632-3.013 3.69-3.773 3.69z"></path>
</symbol>
<symbol id="icon-google" viewBox="0 0 20 20">
<title>google</title>
<path d="M10 0.4c-5.302 0-9.6 4.298-9.6 9.6s4.298 9.6 9.6 9.6 9.6-4.298 9.6-9.6-4.298-9.6-9.6-9.6zM9.447 14.121c-0.603 0.293-1.252 0.324-1.503 0.324-0.048 0-0.075 0-0.075 0s-0.023 0-0.054 0c-0.392 0-2.343-0.090-2.343-1.867 0-1.746 2.125-1.883 2.776-1.883h0.017c-0.376-0.502-0.298-1.008-0.298-1.008-0.033 0.002-0.081 0.004-0.14 0.004-0.245 0-0.718-0.039-1.124-0.301-0.498-0.32-0.75-0.865-0.75-1.619 0-2.131 2.327-2.217 2.35-2.219h2.324v0.051c0 0.26-0.467 0.311-0.785 0.354-0.108 0.016-0.325 0.037-0.386 0.068 0.589 0.315 0.684 0.809 0.684 1.545 0 0.838-0.328 1.281-0.676 1.592-0.216 0.193-0.385 0.344-0.385 0.547 0 0.199 0.232 0.402 0.502 0.639 0.441 0.389 1.046 0.918 1.046 1.811 0 0.923-0.397 1.583-1.18 1.962zM14.5 10h-1.5v1.5h-1v-1.5h-1.5v-1h1.5v-1.5h1v1.5h1.5v1zM8.223 11.15c-0.052 0-0.104 0.002-0.157 0.006-0.444 0.033-0.854 0.199-1.15 0.469-0.294 0.266-0.444 0.602-0.423 0.941 0.045 0.711 0.808 1.127 1.735 1.061 0.912-0.066 1.52-0.592 1.476-1.303-0.042-0.668-0.623-1.174-1.481-1.174zM9.097 7.285c-0.242-0.85-0.632-1.102-1.238-1.102-0.065 0-0.131 0.010-0.194 0.027-0.263 0.075-0.472 0.294-0.588 0.62-0.119 0.33-0.126 0.674-0.024 1.066 0.185 0.701 0.683 1.209 1.185 1.209 0.066 0 0.132-0.008 0.194-0.027 0.549-0.154 0.893-0.992 0.665-1.793z"></path>
</symbol>
<symbol id="icon-linkedin" viewBox="0 0 20 20">
<title>linkedin</title>
<path d="M10 0.4c-5.302 0-9.6 4.298-9.6 9.6s4.298 9.6 9.6 9.6 9.6-4.298 9.6-9.6-4.298-9.6-9.6-9.6zM7.65 13.979h-1.944v-6.256h1.944v6.256zM6.666 6.955c-0.614 0-1.011-0.435-1.011-0.973 0-0.549 0.409-0.971 1.036-0.971s1.011 0.422 1.023 0.971c0 0.538-0.396 0.973-1.048 0.973zM14.75 13.979h-1.944v-3.467c0-0.807-0.282-1.355-0.985-1.355-0.537 0-0.856 0.371-0.997 0.728-0.052 0.127-0.065 0.307-0.065 0.486v3.607h-1.945v-4.26c0-0.781-0.025-1.434-0.051-1.996h1.689l0.089 0.869h0.039c0.256-0.408 0.883-1.010 1.932-1.010 1.279 0 2.238 0.857 2.238 2.699v3.699z"></path>
</symbol>
<symbol id="icon-pinterest" viewBox="0 0 20 20">
<title>pinterest</title>
<path d="M10 0.4c-5.302 0-9.6 4.298-9.6 9.6s4.298 9.6 9.6 9.6 9.6-4.298 9.6-9.6-4.298-9.6-9.6-9.6zM10.657 12.275c-0.616-0.047-0.874-0.352-1.356-0.644-0.265 1.391-0.589 2.725-1.549 3.422-0.297-2.104 0.434-3.682 0.774-5.359-0.579-0.975 0.069-2.936 1.291-2.454 1.503 0.596-1.302 3.625 0.581 4.004 1.966 0.394 2.769-3.412 1.55-4.648-1.762-1.787-5.127-0.041-4.713 2.517 0.1 0.625 0.747 0.815 0.258 1.678-1.127-0.25-1.464-1.139-1.42-2.324 0.069-1.94 1.743-3.299 3.421-3.486 2.123-0.236 4.115 0.779 4.391 2.777 0.309 2.254-0.959 4.693-3.228 4.517z"></path>
</symbol>
<symbol id="icon-tumblr" viewBox="0 0 20 20">
<title>tumblr</title>
<path d="M10 0.4c-5.302 0-9.6 4.298-9.6 9.6s4.298 9.6 9.6 9.6 9.6-4.298 9.6-9.6-4.298-9.6-9.6-9.6zM12.577 14.141c-0.393 0.188-0.748 0.318-1.066 0.395-0.318 0.074-0.662 0.113-1.031 0.113-0.42 0-0.791-0.055-1.114-0.162s-0.598-0.26-0.826-0.459c-0.228-0.197-0.386-0.41-0.474-0.633-0.088-0.225-0.132-0.549-0.132-0.973v-3.262h-1.016v-1.314c0.359-0.119 0.67-0.289 0.927-0.512 0.257-0.221 0.464-0.486 0.619-0.797s0.263-0.707 0.322-1.185h1.307v2.35h2.18v1.458h-2.18v2.385c0 0.539 0.028 0.885 0.085 1.037 0.056 0.154 0.161 0.275 0.315 0.367 0.204 0.123 0.437 0.185 0.697 0.185 0.466 0 0.928-0.154 1.388-0.461v1.468z"></path>
</symbol>
<symbol id="icon-twitter" viewBox="0 0 20 20">
<title>twitter</title>
<path d="M10 0.4c-5.302 0-9.6 4.298-9.6 9.6s4.298 9.6 9.6 9.6 9.6-4.298 9.6-9.6-4.298-9.6-9.6-9.6zM13.905 8.264c0.004 0.082 0.005 0.164 0.005 0.244 0 2.5-1.901 5.381-5.379 5.381-1.068 0-2.062-0.312-2.898-0.85 0.147 0.018 0.298 0.025 0.451 0.025 0.886 0 1.701-0.301 2.348-0.809-0.827-0.016-1.525-0.562-1.766-1.312 0.115 0.021 0.233 0.033 0.355 0.033 0.172 0 0.34-0.023 0.498-0.066-0.865-0.174-1.517-0.938-1.517-1.854v-0.023c0.255 0.141 0.547 0.227 0.857 0.237-0.508-0.34-0.841-0.918-0.841-1.575 0-0.346 0.093-0.672 0.256-0.951 0.933 1.144 2.325 1.896 3.897 1.977-0.033-0.139-0.049-0.283-0.049-0.432 0-1.043 0.846-1.891 1.891-1.891 0.543 0 1.035 0.23 1.38 0.598 0.431-0.086 0.835-0.242 1.2-0.459-0.141 0.441-0.44 0.812-0.831 1.047 0.383-0.047 0.747-0.148 1.086-0.299-0.253 0.379-0.574 0.713-0.943 0.979z"></path>
</symbol>
<symbol id="icon-vimeo" viewBox="0 0 20 20">
<title>vimeo</title>
<path d="M10 0.4c-5.302 0-9.6 4.298-9.6 9.6s4.298 9.6 9.6 9.6 9.6-4.298 9.6-9.6-4.298-9.6-9.6-9.6zM14.401 8.15c-0.508 2.916-3.348 5.387-4.201 5.951-0.854 0.562-1.634-0.227-1.916-0.824-0.324-0.682-1.293-4.373-1.547-4.68s-1.016 0.307-1.016 0.307l-0.369-0.494c0 0 1.547-1.883 2.724-2.117 1.248-0.25 1.246 1.951 1.546 3.174 0.291 1.183 0.486 1.859 0.739 1.859s0.739-0.658 1.269-1.67c0.532-1.012-0.022-1.906-1.061-1.27 0.415-2.54 4.34-3.152 3.832-0.236z"></path>
</symbol>
<symbol id="icon-youtube" viewBox="0 0 20 20">
<title>youtube</title>
<path d="M11.603 9.833l-2.246-1.048c-0.196-0.091-0.357 0.011-0.357 0.228v1.974c0 0.217 0.161 0.319 0.357 0.228l2.245-1.048c0.197-0.092 0.197-0.242 0.001-0.334zM10 0.4c-5.302 0-9.6 4.298-9.6 9.6s4.298 9.6 9.6 9.6 9.6-4.298 9.6-9.6-4.298-9.6-9.6-9.6zM10 13.9c-4.914 0-5-0.443-5-3.9s0.086-3.9 5-3.9 5 0.443 5 3.9-0.086 3.9-5 3.9z"></path>
</symbol>
<symbol id="icon-arrow-back" viewBox="0 0 24 24">
<title>arrow-back</title>
<path d="M20.016 11.016v1.969h-12.188l5.578 5.625-1.406 1.406-8.016-8.016 8.016-8.016 1.406 1.406-5.578 5.625h12.188z"></path>
</symbol>
<symbol id="icon-arrow-downward" viewBox="0 0 24 24">
<title>arrow-downward</title>
<path d="M20.016 12l-8.016 8.016-8.016-8.016 1.453-1.406 5.578 5.578v-12.188h1.969v12.188l5.625-5.578z"></path>
</symbol>
<symbol id="icon-arrow-forward" viewBox="0 0 24 24">
<title>arrow-forward</title>
<path d="M12 3.984l8.016 8.016-8.016 8.016-1.406-1.406 5.578-5.625h-12.188v-1.969h12.188l-5.578-5.625z"></path>
</symbol>
<symbol id="icon-arrow-upward" viewBox="0 0 24 24">
<title>arrow-upward</title>
<path d="M3.984 12l8.016-8.016 8.016 8.016-1.453 1.406-5.578-5.578v12.188h-1.969v-12.188l-5.625 5.578z"></path>
</symbol>
<symbol id="icon-keyboard-arrow-down" viewBox="0 0 24 24">
<title>keyboard-arrow-down</title>
<path d="M7.406 7.828l4.594 4.594 4.594-4.594 1.406 1.406-6 6-6-6z"></path>
</symbol>
<symbol id="icon-keyboard-arrow-left" viewBox="0 0 24 24">
<title>keyboard-arrow-left</title>
<path d="M15.422 16.078l-1.406 1.406-6-6 6-6 1.406 1.406-4.594 4.594z"></path>
</symbol>
<symbol id="icon-keyboard-arrow-right" viewBox="0 0 24 24">
<title>keyboard-arrow-right</title>
<path d="M8.578 16.359l4.594-4.594-4.594-4.594 1.406-1.406 6 6-6 6z"></path>
</symbol>
<symbol id="icon-keyboard-arrow-up" viewBox="0 0 24 24">
<title>keyboard-arrow-up</title>
<path d="M7.406 15.422l-1.406-1.406 6-6 6 6-1.406 1.406-4.594-4.594z"></path>
</symbol>
<symbol id="icon-search" viewBox="0 0 24 24">
<title>search</title>
<path d="M9.516 14.016c2.484 0 4.5-2.016 4.5-4.5s-2.016-4.5-4.5-4.5-4.5 2.016-4.5 4.5 2.016 4.5 4.5 4.5zM15.516 14.016l4.969 4.969-1.5 1.5-4.969-4.969v-0.797l-0.281-0.281c-1.125 0.984-2.625 1.547-4.219 1.547-3.609 0-6.516-2.859-6.516-6.469s2.906-6.516 6.516-6.516 6.469 2.906 6.469 6.516c0 1.594-0.563 3.094-1.547 4.219l0.281 0.281h0.797z"></path>
</symbol>
</defs>
</svg>
