<?xml version="1.0" encoding="UTF-8" standalone="no"?>
<!DOCTYPE svg PUBLIC "-//W3C//DTD SVG 1.1//EN" "http://www.w3.org/Graphics/SVG/1.1/DTD/svg11.dtd">
<svg width="100%" height="100%" viewBox="0 0 32 41" version="1.1" xmlns="http://www.w3.org/2000/svg" xmlns:xlink="http://www.w3.org/1999/xlink" xml:space="preserve" style="fill-rule:evenodd;clip-rule:evenodd;stroke-linejoin:round;stroke-miterlimit:1.41421;">
    <g transform="matrix(0.916052,0,0,0.916052,-6.77711,-0.0590841)">
        <g transform="matrix(0.71649,0,0,0.815821,3.25635,1.23611)">
            <path d="M30.396,-0.696C30.474,-0.688 30.554,-0.683 30.632,-0.672C30.789,-0.65 30.943,-0.618 31.094,-0.576C31.7,-0.406 32.239,-0.07 32.62,0.376C32.716,0.488 32.801,0.606 32.876,0.728C32.913,0.79 32.945,0.854 32.979,0.916L53.897,42.916C53.973,43.087 53.998,43.128 54.052,43.305C54.112,43.505 54.146,43.71 54.153,43.916C54.163,44.191 54.125,44.467 54.04,44.732C53.805,45.465 53.214,46.089 52.436,46.426C52.155,46.547 51.853,46.631 51.544,46.673C51.337,46.701 51.284,46.697 51.076,46.704L9.241,46.704C9.032,46.697 8.979,46.701 8.773,46.673C8.463,46.631 8.161,46.547 7.88,46.426C7.599,46.304 7.34,46.145 7.113,45.955C6.486,45.429 6.136,44.678 6.163,43.916C6.17,43.71 6.205,43.505 6.265,43.305C6.319,43.128 6.343,43.087 6.42,42.916L27.337,0.916C27.372,0.854 27.404,0.79 27.441,0.728C27.516,0.606 27.601,0.488 27.696,0.376C28.078,-0.07 28.616,-0.406 29.222,-0.576C29.449,-0.64 29.684,-0.68 29.921,-0.696C30,-0.701 30.079,-0.701 30.158,-0.704C30.237,-0.701 30.317,-0.699 30.396,-0.696ZM9.241,44L51.076,44L30.158,2C23.186,16 16.213,30 9.241,44Z" style="fill:white;fill-rule:nonzero;"/>
        </g>
        <g transform="matrix(1.08211,0,0,1.08211,-1.10617,1.25436)">
            <path d="M24.144,10.994C24.178,11 24.212,11.005 24.245,11.014C24.379,11.047 24.505,11.107 24.615,11.19C24.688,11.246 24.701,11.265 24.765,11.331L24.766,11.332C24.83,11.413 24.887,11.492 24.929,11.587C24.971,11.681 25,11.783 25.013,11.885C25.024,11.967 25.027,12.05 25.03,12.133C25.037,12.305 25.04,12.477 25.043,12.65C25.048,13.017 25.052,13.385 25.055,13.752C25.065,15.236 25.067,16.719 25.067,18.202C25.068,24.652 25.045,31.102 25.021,37.552L25.017,38.698C25.012,38.789 25.014,38.812 24.995,38.902C24.952,39.104 24.848,39.291 24.697,39.433C24.622,39.504 24.537,39.563 24.444,39.608C24.351,39.653 24.252,39.684 24.15,39.699C23.734,39.761 23.312,39.552 23.109,39.183C23.043,39.063 23.002,38.929 22.988,38.792C22.985,38.758 22.985,38.724 22.983,38.689C22.998,35.073 23.01,31.458 23.02,27.842C23.028,24.629 23.034,21.416 23.034,18.203C23.034,17.231 23.032,16.259 23.029,15.287C23.026,14.354 23.023,13.422 23.006,12.49C23.003,12.352 23.003,12.352 22.999,12.214C22.996,12.163 22.998,12.163 22.99,12.112L22.984,12.01C22.985,11.975 22.985,11.941 22.988,11.907C22.997,11.804 23.022,11.703 23.062,11.608C23.182,11.32 23.435,11.099 23.736,11.018C23.838,10.991 23.937,10.985 24.042,10.984C24.076,10.987 24.11,10.991 24.144,10.994ZM23.013,12.252L23.03,12.301C23.019,12.261 23.006,12.211 23.013,12.252Z" style="fill:white;fill-rule:nonzero;"/>
        </g>
        <g transform="matrix(1.02134,0,0,1.02134,-0.630305,-0.146285)">
            <path d="M21.201,18.39C21.385,18.406 21.56,18.464 21.71,18.572C21.768,18.613 21.819,18.661 21.867,18.712C23.192,20.25 24.485,21.817 25.743,23.41C25.835,23.536 25.899,23.677 25.926,23.831C25.943,23.928 25.946,24.027 25.933,24.125C25.886,24.493 25.626,24.81 25.274,24.928C25.167,24.964 25.055,24.981 24.942,24.979C24.816,24.976 24.69,24.949 24.574,24.899C24.443,24.843 24.331,24.758 24.234,24.655C22.909,23.117 21.616,21.551 20.358,19.957C20.267,19.831 20.202,19.69 20.175,19.536C20.158,19.439 20.156,19.34 20.168,19.242C20.21,18.918 20.417,18.63 20.711,18.487C20.838,18.425 20.975,18.395 21.117,18.388C21.159,18.388 21.159,18.388 21.201,18.39Z" style="fill:white;fill-rule:nonzero;"/>
        </g>
        <g transform="matrix(1.26792,0,0,1.26792,-6.78533,5.57001)">
            <path d="M21.181,18.519C21.339,18.53 21.49,18.577 21.621,18.668C21.676,18.705 21.723,18.749 21.769,18.797C23.095,20.331 24.387,21.896 25.641,23.49C25.718,23.598 25.773,23.716 25.797,23.847C25.816,23.95 25.816,24.056 25.796,24.159C25.777,24.261 25.738,24.36 25.683,24.449C25.521,24.708 25.225,24.863 24.92,24.848C24.829,24.844 24.738,24.824 24.653,24.791C24.529,24.743 24.424,24.666 24.333,24.57C23.006,23.036 21.714,21.471 20.46,19.877C20.383,19.769 20.328,19.651 20.304,19.521C20.29,19.443 20.286,19.364 20.294,19.286C20.32,19.01 20.485,18.758 20.728,18.624C20.833,18.566 20.945,18.535 21.064,18.521C21.103,18.519 21.142,18.518 21.181,18.519Z" style="fill:white;fill-rule:nonzero;"/>
        </g>
        <g transform="matrix(-1.48112,0,0,1.48112,61.8361,-5.54681)">
            <path d="M21.098,18.693C20.991,18.703 20.889,18.731 20.796,18.786C20.547,18.932 20.417,19.231 20.48,19.514C20.501,19.607 20.542,19.691 20.597,19.769C21.837,21.355 23.159,22.876 24.441,24.43C24.52,24.52 24.613,24.591 24.726,24.633C24.792,24.657 24.862,24.671 24.933,24.675C25.172,24.685 25.403,24.564 25.532,24.362C25.576,24.293 25.607,24.215 25.624,24.134C25.64,24.053 25.642,23.97 25.628,23.888C25.61,23.782 25.566,23.686 25.505,23.598C24.264,22.012 22.942,20.491 21.66,18.937C21.629,18.902 21.597,18.868 21.559,18.838C21.446,18.749 21.311,18.702 21.168,18.693C21.133,18.692 21.133,18.692 21.098,18.693Z" style="fill:white;fill-rule:nonzero;"/>
        </g>
    </g>
</svg>
